<svg xmlns="http://www.w3.org/2000/svg" xmlns:xlink="http://www.w3.org/1999/xlink" width="2000" zoomAndPan="magnify" viewBox="0 0 1500 1499.999933" height="2000" preserveAspectRatio="xMidYMid meet" version="1.0"><defs><g/><clipPath id="1b06f4f25e"><path d="M 1273.980469 767.050781 L 1329.171875 767.050781 L 1329.171875 822.242188 L 1273.980469 822.242188 Z M 1273.980469 767.050781 " clip-rule="nonzero"/></clipPath><clipPath id="b867376622"><path d="M 1301.578125 767.050781 C 1316.816406 767.050781 1329.171875 779.40625 1329.171875 794.648438 C 1329.171875 809.890625 1316.816406 822.242188 1301.578125 822.242188 C 1286.335938 822.242188 1273.980469 809.890625 1273.980469 794.648438 C 1273.980469 779.40625 1286.335938 767.050781 1301.578125 767.050781 Z M 1301.578125 767.050781 " clip-rule="nonzero"/></clipPath><clipPath id="171183334c"><path d="M 0.980469 0.0507812 L 56.171875 0.0507812 L 56.171875 55.242188 L 0.980469 55.242188 Z M 0.980469 0.0507812 " clip-rule="nonzero"/></clipPath><clipPath id="ca51edb483"><path d="M 28.578125 0.0507812 C 43.816406 0.0507812 56.171875 12.40625 56.171875 27.648438 C 56.171875 42.890625 43.816406 55.242188 28.578125 55.242188 C 13.335938 55.242188 0.980469 42.890625 0.980469 27.648438 C 0.980469 12.40625 13.335938 0.0507812 28.578125 0.0507812 Z M 28.578125 0.0507812 " clip-rule="nonzero"/></clipPath><clipPath id="0803017ffc"><rect x="0" width="57" y="0" height="56"/></clipPath></defs><rect x="-150" width="1800" fill="#ffffff" y="-149.999993" height="1799.99992" fill-opacity="1"/><rect x="-150" width="1800" fill="#161b24" y="-149.999993" height="1799.99992" fill-opacity="1"/><g fill="#f1f5f9" fill-opacity="1"><g transform="translate(228.769832, 817.49991)"><g><path d="M 63.4375 -110.15625 C 77.851562 -110.15625 90.0625 -107.332031 100.0625 -101.6875 C 110.0625 -96.050781 115.0625 -87.316406 115.0625 -75.484375 L 77.3125 -75.484375 C 77.3125 -79.421875 75.546875 -82.207031 72.015625 -83.84375 C 69.566406 -85.207031 66.503906 -85.890625 62.828125 -85.890625 C 53.035156 -85.890625 48.140625 -83.578125 48.140625 -78.953125 C 48.140625 -76.367188 49.835938 -74.53125 53.234375 -73.4375 C 56.640625 -72.351562 62.21875 -71.195312 69.96875 -69.96875 C 79.488281 -68.613281 87.441406 -67.015625 93.828125 -65.171875 C 100.222656 -63.335938 105.800781 -60.070312 110.5625 -55.375 C 115.320312 -50.6875 117.703125 -44.128906 117.703125 -35.703125 C 117.703125 -21.960938 112.566406 -12.164062 102.296875 -6.3125 C 92.035156 -0.46875 78.609375 2.453125 62.015625 2.453125 C 52.492188 2.453125 43.515625 1.125 35.078125 -1.53125 C 26.648438 -4.1875 19.785156 -8.300781 14.484375 -13.875 C 9.179688 -19.445312 6.53125 -26.519531 6.53125 -35.09375 L 44.265625 -35.09375 L 44.265625 -34.265625 C 44.398438 -29.648438 46.335938 -26.421875 50.078125 -24.578125 C 53.816406 -22.742188 57.796875 -21.828125 62.015625 -21.828125 C 73.304688 -21.828125 78.953125 -24.476562 78.953125 -29.78125 C 78.953125 -32.5 77.179688 -34.46875 73.640625 -35.6875 C 70.109375 -36.914062 64.328125 -38.210938 56.296875 -39.578125 C 46.640625 -41.210938 38.71875 -42.976562 32.53125 -44.875 C 26.34375 -46.78125 20.9375 -50.007812 16.3125 -54.5625 C 11.695312 -59.125 9.390625 -65.484375 9.390625 -73.640625 C 9.390625 -86.835938 14.382812 -96.222656 24.375 -101.796875 C 34.375 -107.367188 47.394531 -110.15625 63.4375 -110.15625 Z M 63.4375 -110.15625 "/></g></g></g><g fill="#f1f5f9" fill-opacity="1"><g transform="translate(346.273602, 817.49991)"><g><path d="M 67.9375 -110.15625 C 85.613281 -110.15625 99.925781 -106.378906 110.875 -98.828125 C 121.820312 -91.285156 127.296875 -79.765625 127.296875 -64.265625 L 87.921875 -64.265625 C 87.921875 -76.503906 81.257812 -82.625 67.9375 -82.625 C 54.601562 -82.625 47.9375 -74.9375 47.9375 -59.5625 L 47.9375 -47.9375 C 47.9375 -32.707031 54.875 -25.09375 68.75 -25.09375 C 82.625 -25.09375 89.5625 -31.347656 89.5625 -43.859375 L 127.296875 -43.859375 C 127.296875 -28.222656 121.820312 -16.59375 110.875 -8.96875 C 99.925781 -1.351562 85.613281 2.453125 67.9375 2.453125 C 49.03125 2.453125 34.203125 -2.304688 23.453125 -11.828125 C 12.710938 -21.347656 7.34375 -35.359375 7.34375 -53.859375 C 7.34375 -72.347656 12.710938 -86.351562 23.453125 -95.875 C 34.203125 -105.394531 49.03125 -110.15625 67.9375 -110.15625 Z M 67.9375 -110.15625 "/></g></g></g><g fill="#f1f5f9" fill-opacity="1"><g transform="translate(475.201366, 817.49991)"><g><path d="M 67.9375 -110.15625 C 86.832031 -110.15625 101.6875 -105.359375 112.5 -95.765625 C 123.3125 -86.179688 128.71875 -72.210938 128.71875 -53.859375 C 128.71875 -35.492188 123.3125 -21.515625 112.5 -11.921875 C 101.6875 -2.335938 86.832031 2.453125 67.9375 2.453125 C 49.03125 2.453125 34.203125 -2.304688 23.453125 -11.828125 C 12.710938 -21.347656 7.34375 -35.359375 7.34375 -53.859375 C 7.34375 -72.347656 12.710938 -86.351562 23.453125 -95.875 C 34.203125 -105.394531 49.03125 -110.15625 67.9375 -110.15625 Z M 67.9375 -82.625 C 54.601562 -82.625 47.9375 -74.9375 47.9375 -59.5625 L 47.9375 -47.9375 C 47.9375 -32.707031 54.601562 -25.09375 67.9375 -25.09375 C 81.394531 -25.09375 88.125 -32.707031 88.125 -47.9375 L 88.125 -59.5625 C 88.125 -74.9375 81.394531 -82.625 67.9375 -82.625 Z M 67.9375 -82.625 "/></g></g></g><g fill="#f1f5f9" fill-opacity="1"><g transform="translate(604.129145, 817.49991)"><g><path d="M 90.375 0 L 87.71875 -16.3125 C 83.5 -10.46875 77.957031 -5.878906 71.09375 -2.546875 C 64.226562 0.785156 56.988281 2.453125 49.375 2.453125 C 36.851562 2.453125 27.460938 -1.015625 21.203125 -7.953125 C 14.953125 -14.890625 11.828125 -24.882812 11.828125 -37.9375 L 11.828125 -107.71875 L 52.421875 -107.71875 L 52.421875 -42.84375 C 52.421875 -38.21875 53.609375 -34.507812 55.984375 -31.71875 C 58.367188 -28.9375 61.738281 -27.546875 66.09375 -27.546875 C 71.125 -27.546875 75.203125 -29.175781 78.328125 -32.4375 C 81.460938 -35.695312 83.03125 -39.707031 83.03125 -44.46875 L 83.03125 -107.71875 L 123.625 -107.71875 L 123.625 0 Z M 90.375 0 "/></g></g></g><g fill="#f1f5f9" fill-opacity="1"><g transform="translate(733.056902, 817.49991)"><g><path d="M 84.046875 -107.71875 L 84.046875 -80.171875 L 61.203125 -80.171875 L 61.203125 -39.171875 C 61.203125 -34.273438 62.015625 -30.703125 63.640625 -28.453125 C 65.273438 -26.210938 68.269531 -25.09375 72.625 -25.09375 L 84.046875 -25.09375 L 84.046875 -1.21875 C 80.785156 -0.132812 76.566406 0.742188 71.390625 1.421875 C 66.222656 2.109375 61.738281 2.453125 57.9375 2.453125 C 45.96875 2.453125 36.753906 0.273438 30.296875 -4.078125 C 23.835938 -8.429688 20.609375 -15.84375 20.609375 -26.3125 L 20.609375 -80.171875 L 5.515625 -80.171875 L 5.515625 -107.71875 L 22.234375 -107.71875 L 31.015625 -140.359375 L 61.203125 -140.359375 L 61.203125 -107.71875 Z M 84.046875 -107.71875 "/></g></g></g><g fill="#f1f5f9" fill-opacity="1"><g transform="translate(816.492747, 817.49991)"><g><path d="M 65.484375 -110.15625 C 81.941406 -110.15625 95.335938 -107.398438 105.671875 -101.890625 C 116.003906 -96.390625 121.171875 -87.453125 121.171875 -75.078125 L 121.171875 -33.046875 C 121.171875 -30.734375 121.710938 -28.828125 122.796875 -27.328125 C 123.890625 -25.835938 125.523438 -25.09375 127.703125 -25.09375 L 135.046875 -25.09375 L 135.046875 -1.625 C 134.640625 -1.351562 133.585938 -0.910156 131.890625 -0.296875 C 130.191406 0.304688 127.773438 0.914062 124.640625 1.53125 C 121.515625 2.144531 117.910156 2.453125 113.828125 2.453125 C 105.941406 2.453125 99.445312 1.265625 94.34375 -1.109375 C 89.25 -3.492188 85.75 -6.796875 83.84375 -11.015625 C 78.675781 -6.929688 72.894531 -3.664062 66.5 -1.21875 C 60.113281 1.226562 52.632812 2.453125 44.0625 2.453125 C 18.769531 2.453125 6.125 -7.613281 6.125 -27.75 C 6.125 -38.21875 8.941406 -46.203125 14.578125 -51.703125 C 20.222656 -57.210938 28.347656 -60.988281 38.953125 -63.03125 C 49.566406 -65.070312 63.441406 -66.09375 80.578125 -66.09375 L 80.578125 -71.40625 C 80.578125 -75.613281 79.113281 -78.804688 76.1875 -80.984375 C 73.269531 -83.160156 69.5 -84.25 64.875 -84.25 C 60.65625 -84.25 57.015625 -83.5 53.953125 -82 C 50.898438 -80.507812 49.375 -78.132812 49.375 -74.875 L 49.375 -74.046875 L 9.390625 -74.046875 C 9.253906 -74.734375 9.1875 -75.6875 9.1875 -76.90625 C 9.1875 -87.101562 14.046875 -95.191406 23.765625 -101.171875 C 33.492188 -107.160156 47.398438 -110.15625 65.484375 -110.15625 Z M 80.578125 -46.921875 C 69.015625 -46.921875 60.476562 -45.660156 54.96875 -43.140625 C 49.46875 -40.628906 46.71875 -37.265625 46.71875 -33.046875 C 46.71875 -26.242188 51.34375 -22.84375 60.59375 -22.84375 C 65.894531 -22.84375 70.550781 -24.269531 74.5625 -27.125 C 78.570312 -29.988281 80.578125 -33.523438 80.578125 -37.734375 Z M 80.578125 -46.921875 "/></g></g></g><g fill="#f1f5f9" fill-opacity="1"><g transform="translate(945.420503, 817.49991)"><g><path d="M 53.046875 -97.71875 C 60.796875 -106.007812 70.859375 -110.15625 83.234375 -110.15625 C 97.785156 -110.15625 109.003906 -105.425781 116.890625 -95.96875 C 124.773438 -86.519531 128.71875 -72.550781 128.71875 -54.0625 C 128.71875 -35.425781 124.773438 -21.347656 116.890625 -11.828125 C 109.003906 -2.304688 97.785156 2.453125 83.234375 2.453125 C 68.273438 2.453125 56.847656 -3.460938 48.953125 -15.296875 L 45.484375 0 L 12.4375 0 L 12.4375 -147.90625 L 53.046875 -147.90625 Z M 70.578125 -80.171875 C 64.597656 -80.171875 60.109375 -78.023438 57.109375 -73.734375 C 54.117188 -69.453125 52.625 -63.914062 52.625 -57.125 L 52.625 -50.390625 C 52.625 -43.585938 54.117188 -38.078125 57.109375 -33.859375 C 60.109375 -29.648438 64.597656 -27.546875 70.578125 -27.546875 C 82.273438 -27.546875 88.125 -34.476562 88.125 -48.34375 L 88.125 -59.15625 C 88.125 -73.164062 82.273438 -80.171875 70.578125 -80.171875 Z M 70.578125 -80.171875 "/></g></g></g><g fill="#f1f5f9" fill-opacity="1"><g transform="translate(1074.348259, 817.49991)"><g><path d="M 13.671875 0 L 13.671875 -147.90625 L 54.265625 -147.90625 L 54.265625 0 Z M 13.671875 0 "/></g></g></g><g fill="#f1f5f9" fill-opacity="1"><g transform="translate(1135.140185, 817.49991)"><g><path d="M 67.9375 -110.15625 C 87.65625 -110.15625 102.710938 -105.53125 113.109375 -96.28125 C 123.515625 -87.039062 128.71875 -72.898438 128.71875 -53.859375 L 128.71875 -46.921875 L 47.9375 -46.921875 C 47.9375 -39.171875 49.671875 -33.320312 53.140625 -29.375 C 56.609375 -25.425781 62.082031 -23.453125 69.5625 -23.453125 C 76.363281 -23.453125 81.363281 -24.878906 84.5625 -27.734375 C 87.757812 -30.597656 89.359375 -34.410156 89.359375 -39.171875 L 128.71875 -39.171875 C 128.71875 -26.109375 123.753906 -15.90625 113.828125 -8.5625 C 103.898438 -1.21875 89.414062 2.453125 70.375 2.453125 C 50.382812 2.453125 34.878906 -2.203125 23.859375 -11.515625 C 12.847656 -20.835938 7.34375 -34.953125 7.34375 -53.859375 C 7.34375 -72.347656 12.710938 -86.351562 23.453125 -95.875 C 34.203125 -105.394531 49.03125 -110.15625 67.9375 -110.15625 Z M 69.5625 -84.25 C 56.78125 -84.25 49.640625 -78.195312 48.140625 -66.09375 L 87.71875 -66.09375 C 87.71875 -71.664062 86.117188 -76.082031 82.921875 -79.34375 C 79.722656 -82.613281 75.269531 -84.25 69.5625 -84.25 Z M 69.5625 -84.25 "/></g></g></g><g clip-path="url(#1b06f4f25e)"><g clip-path="url(#b867376622)"><g transform="matrix(1, 0, 0, 1, 1273, 767)"><g clip-path="url(#0803017ffc)"><g clip-path="url(#171183334c)"><g clip-path="url(#ca51edb483)"><path fill="#22d3ee" d="M 0.980469 0.0507812 L 56.171875 0.0507812 L 56.171875 55.242188 L 0.980469 55.242188 Z M 0.980469 0.0507812 " fill-opacity="1" fill-rule="nonzero"/></g></g></g></g></g></g></svg>